<svg xmlns="http://www.w3.org/2000/svg" xmlns:xlink="http://www.w3.org/1999/xlink" width="500" zoomAndPan="magnify" viewBox="0 0 375 76.499998" height="102" preserveAspectRatio="xMidYMid meet" version="1.0"><defs><g/></defs><g fill="#a6a6a6" fill-opacity="1"><g transform="translate(61.11634, 50.861466)"><g><path d="M 23.90625 -18.25 C 25.863281 -16.113281 26.84375 -13.5 26.84375 -10.40625 C 26.84375 -7.320312 25.863281 -4.710938 23.90625 -2.578125 C 21.957031 -0.453125 19.476562 0.609375 16.46875 0.609375 C 13.707031 0.609375 11.429688 -0.378906 9.640625 -2.359375 L 9.5625 -2.359375 L 9.5625 0 L 2.4375 0 L 2.4375 -34.984375 L 9.640625 -34.984375 L 9.640625 -18.875 C 11.429688 -20.601562 13.707031 -21.46875 16.46875 -21.46875 C 19.476562 -21.46875 21.957031 -20.394531 23.90625 -18.25 Z M 17.859375 -6.890625 C 18.753906 -7.796875 19.203125 -8.96875 19.203125 -10.40625 C 19.203125 -11.84375 18.734375 -13.019531 17.796875 -13.9375 C 16.859375 -14.863281 15.695312 -15.328125 14.3125 -15.328125 C 12.957031 -15.328125 11.8125 -14.863281 10.875 -13.9375 C 9.9375 -13.019531 9.46875 -11.84375 9.46875 -10.40625 C 9.46875 -9 9.921875 -7.832031 10.828125 -6.90625 C 11.742188 -5.988281 12.90625 -5.53125 14.3125 -5.53125 C 15.78125 -5.53125 16.960938 -5.984375 17.859375 -6.890625 Z M 17.859375 -6.890625 "/></g></g></g><g fill="#a6a6a6" fill-opacity="1"><g transform="translate(88.892414, 50.861466)"><g><path d="M 9.234375 -20.859375 L 9.234375 -10.9375 C 9.234375 -8.875 9.546875 -7.410156 10.171875 -6.546875 C 10.796875 -5.679688 11.851562 -5.25 13.34375 -5.25 C 14.832031 -5.25 15.890625 -5.679688 16.515625 -6.546875 C 17.140625 -7.410156 17.453125 -8.875 17.453125 -10.9375 L 17.453125 -20.859375 L 24.640625 -20.859375 L 24.640625 -9.1875 C 24.640625 -5.71875 23.738281 -3.21875 21.9375 -1.6875 C 20.132812 -0.15625 17.265625 0.609375 13.328125 0.609375 C 9.398438 0.609375 6.535156 -0.15625 4.734375 -1.6875 C 2.929688 -3.21875 2.03125 -5.71875 2.03125 -9.1875 L 2.03125 -20.859375 Z M 9.234375 -20.859375 "/></g></g></g><g fill="#a6a6a6" fill-opacity="1"><g transform="translate(115.570451, 50.861466)"><g><path d="M 18.265625 -20.859375 L 26.5625 -20.859375 L 10.171875 10.578125 L 1.875 10.578125 L 9.0625 -3.25 L -0.8125 -20.859375 L 7.484375 -20.859375 L 13.296875 -10.171875 Z M 18.265625 -20.859375 "/></g></g></g><g fill="#a6a6a6" fill-opacity="1"><g transform="translate(141.313131, 50.861466)"><g><path d="M 2.4375 -10.296875 L 2.4375 -14.109375 C 4.332031 -14.109375 5.28125 -14.988281 5.28125 -16.75 L 5.28125 -27.609375 C 5.28125 -28.535156 5.375 -29.398438 5.5625 -30.203125 C 5.757812 -31.003906 6.085938 -31.78125 6.546875 -32.53125 C 7.003906 -33.289062 7.675781 -33.890625 8.5625 -34.328125 C 9.445312 -34.765625 10.507812 -34.984375 11.75 -34.984375 L 15.703125 -34.984375 L 15.703125 -29.765625 L 14.078125 -29.765625 C 13.335938 -29.765625 12.722656 -29.503906 12.234375 -28.984375 C 11.753906 -28.472656 11.515625 -27.8125 11.515625 -27 L 11.515625 -16.546875 C 11.515625 -14.515625 10.6875 -13.066406 9.03125 -12.203125 C 10.6875 -11.335938 11.515625 -9.882812 11.515625 -7.84375 L 11.515625 2.609375 C 11.515625 3.421875 11.753906 4.082031 12.234375 4.59375 C 12.722656 5.113281 13.335938 5.375 14.078125 5.375 L 15.703125 5.375 L 15.703125 10.578125 L 11.75 10.578125 C 10.507812 10.578125 9.445312 10.359375 8.5625 9.921875 C 7.675781 9.484375 7.003906 8.882812 6.546875 8.125 C 6.085938 7.375 5.757812 6.597656 5.5625 5.796875 C 5.375 4.992188 5.28125 4.132812 5.28125 3.21875 L 5.28125 -7.640625 C 5.28125 -9.410156 4.332031 -10.296875 2.4375 -10.296875 Z M 2.4375 -10.296875 "/></g></g></g><g fill="#737373" fill-opacity="1"><g transform="translate(159.461833, 50.861466)"><g><path d="M 3.65625 -20.859375 L 3.65625 -25.296875 C 3.6875 -28.410156 4.421875 -30.90625 5.859375 -32.78125 C 7.296875 -34.65625 9.285156 -35.59375 11.828125 -35.59375 C 12.921875 -35.59375 13.960938 -35.4375 14.953125 -35.125 C 15.941406 -34.8125 16.648438 -34.492188 17.078125 -34.171875 L 17.78125 -33.71875 L 15.25 -28.640625 C 14.601562 -29.015625 13.882812 -29.203125 13.09375 -29.203125 C 12.195312 -29.203125 11.597656 -28.894531 11.296875 -28.28125 C 11.003906 -27.675781 10.859375 -26.613281 10.859375 -25.09375 L 10.859375 -20.859375 L 15.65625 -20.859375 L 15.65625 -15.375 L 10.859375 -15.375 L 10.859375 0 L 3.65625 0 L 3.65625 -15.375 L 0.65625 -15.375 L 0.65625 -20.859375 Z M 3.65625 -20.859375 "/></g></g></g><g fill="#737373" fill-opacity="1"><g transform="translate(174.712243, 50.861466)"><g><path d="M 9.234375 -20.859375 L 9.234375 -10.9375 C 9.234375 -8.875 9.546875 -7.410156 10.171875 -6.546875 C 10.796875 -5.679688 11.851562 -5.25 13.34375 -5.25 C 14.832031 -5.25 15.890625 -5.679688 16.515625 -6.546875 C 17.140625 -7.410156 17.453125 -8.875 17.453125 -10.9375 L 17.453125 -20.859375 L 24.640625 -20.859375 L 24.640625 -9.1875 C 24.640625 -5.71875 23.738281 -3.21875 21.9375 -1.6875 C 20.132812 -0.15625 17.265625 0.609375 13.328125 0.609375 C 9.398438 0.609375 6.535156 -0.15625 4.734375 -1.6875 C 2.929688 -3.21875 2.03125 -5.71875 2.03125 -9.1875 L 2.03125 -20.859375 Z M 9.234375 -20.859375 "/></g></g></g><g fill="#737373" fill-opacity="1"><g transform="translate(201.39028, 50.861466)"><g><path d="M 3.65625 -20.859375 L 3.65625 -28.640625 L 10.859375 -28.640625 L 10.859375 -20.859375 L 15.25 -20.859375 L 15.25 -15.375 L 10.859375 -15.375 L 10.859375 -8.75 C 10.859375 -6.820312 11.398438 -5.859375 12.484375 -5.859375 C 12.753906 -5.859375 13.035156 -5.910156 13.328125 -6.015625 C 13.628906 -6.128906 13.863281 -6.238281 14.03125 -6.34375 L 14.28125 -6.5 L 16.0625 -0.6875 C 14.519531 0.175781 12.757812 0.609375 10.78125 0.609375 C 9.425781 0.609375 8.257812 0.375 7.28125 -0.09375 C 6.300781 -0.570312 5.5625 -1.210938 5.0625 -2.015625 C 4.5625 -2.816406 4.203125 -3.65625 3.984375 -4.53125 C 3.765625 -5.414062 3.65625 -6.359375 3.65625 -7.359375 L 3.65625 -15.375 L 0.65625 -15.375 L 0.65625 -20.859375 Z M 3.65625 -20.859375 "/></g></g></g><g fill="#737373" fill-opacity="1"><g transform="translate(217.454037, 50.861466)"><g><path d="M 9.234375 -20.859375 L 9.234375 -10.9375 C 9.234375 -8.875 9.546875 -7.410156 10.171875 -6.546875 C 10.796875 -5.679688 11.851562 -5.25 13.34375 -5.25 C 14.832031 -5.25 15.890625 -5.679688 16.515625 -6.546875 C 17.140625 -7.410156 17.453125 -8.875 17.453125 -10.9375 L 17.453125 -20.859375 L 24.640625 -20.859375 L 24.640625 -9.1875 C 24.640625 -5.71875 23.738281 -3.21875 21.9375 -1.6875 C 20.132812 -0.15625 17.265625 0.609375 13.328125 0.609375 C 9.398438 0.609375 6.535156 -0.15625 4.734375 -1.6875 C 2.929688 -3.21875 2.03125 -5.71875 2.03125 -9.1875 L 2.03125 -20.859375 Z M 9.234375 -20.859375 "/></g></g></g><g fill="#737373" fill-opacity="1"><g transform="translate(244.132074, 50.861466)"><g><path d="M 2.4375 0 L 2.4375 -20.859375 L 9.640625 -20.859375 L 9.640625 -17.859375 L 9.71875 -17.859375 C 9.769531 -17.960938 9.859375 -18.09375 9.984375 -18.25 C 10.109375 -18.414062 10.375 -18.703125 10.78125 -19.109375 C 11.1875 -19.515625 11.617188 -19.878906 12.078125 -20.203125 C 12.535156 -20.535156 13.128906 -20.828125 13.859375 -21.078125 C 14.597656 -21.335938 15.347656 -21.46875 16.109375 -21.46875 C 16.890625 -21.46875 17.660156 -21.359375 18.421875 -21.140625 C 19.179688 -20.929688 19.738281 -20.71875 20.09375 -20.5 L 20.65625 -20.171875 L 17.65625 -14.078125 C 16.757812 -14.835938 15.507812 -15.21875 13.90625 -15.21875 C 13.039062 -15.21875 12.296875 -15.023438 11.671875 -14.640625 C 11.046875 -14.265625 10.601562 -13.804688 10.34375 -13.265625 C 10.09375 -12.722656 9.910156 -12.257812 9.796875 -11.875 C 9.691406 -11.5 9.640625 -11.203125 9.640625 -10.984375 L 9.640625 0 Z M 2.4375 0 "/></g></g></g><g fill="#737373" fill-opacity="1"><g transform="translate(264.384606, 50.861466)"><g><path d="M 23.546875 -9.4375 L 8.421875 -9.4375 C 8.421875 -7.96875 8.894531 -6.878906 9.84375 -6.171875 C 10.789062 -5.472656 11.820312 -5.125 12.9375 -5.125 C 14.101562 -5.125 15.023438 -5.28125 15.703125 -5.59375 C 16.378906 -5.90625 17.148438 -6.519531 18.015625 -7.4375 L 23.21875 -4.84375 C 21.050781 -1.207031 17.445312 0.609375 12.40625 0.609375 C 9.257812 0.609375 6.5625 -0.46875 4.3125 -2.625 C 2.0625 -4.78125 0.9375 -7.375 0.9375 -10.40625 C 0.9375 -13.445312 2.0625 -16.050781 4.3125 -18.21875 C 6.5625 -20.382812 9.257812 -21.46875 12.40625 -21.46875 C 15.707031 -21.46875 18.394531 -20.507812 20.46875 -18.59375 C 22.550781 -16.6875 23.59375 -13.957031 23.59375 -10.40625 C 23.59375 -9.925781 23.578125 -9.601562 23.546875 -9.4375 Z M 8.625 -13.421875 L 16.546875 -13.421875 C 16.390625 -14.503906 15.960938 -15.335938 15.265625 -15.921875 C 14.578125 -16.503906 13.691406 -16.796875 12.609375 -16.796875 C 11.410156 -16.796875 10.457031 -16.484375 9.75 -15.859375 C 9.050781 -15.234375 8.675781 -14.421875 8.625 -13.421875 Z M 8.625 -13.421875 "/></g></g></g><g fill="#a6a6a6" fill-opacity="1"><g transform="translate(288.916496, 50.861466)"><g><path d="M 15.703125 -14.109375 L 15.703125 -10.296875 C 13.804688 -10.296875 12.859375 -9.410156 12.859375 -7.640625 L 12.859375 3.21875 C 12.859375 4.132812 12.757812 4.992188 12.5625 5.796875 C 12.375 6.597656 12.050781 7.375 11.59375 8.125 C 11.132812 8.882812 10.460938 9.484375 9.578125 9.921875 C 8.691406 10.359375 7.628906 10.578125 6.390625 10.578125 L 2.4375 10.578125 L 2.4375 5.375 L 4.0625 5.375 C 4.800781 5.375 5.410156 5.113281 5.890625 4.59375 C 6.378906 4.082031 6.625 3.421875 6.625 2.609375 L 6.625 -7.84375 C 6.625 -9.882812 7.453125 -11.335938 9.109375 -12.203125 C 7.453125 -13.066406 6.625 -14.515625 6.625 -16.546875 L 6.625 -27 C 6.625 -27.8125 6.378906 -28.472656 5.890625 -28.984375 C 5.410156 -29.503906 4.800781 -29.765625 4.0625 -29.765625 L 2.4375 -29.765625 L 2.4375 -34.984375 L 6.390625 -34.984375 C 7.628906 -34.984375 8.691406 -34.765625 9.578125 -34.328125 C 10.460938 -33.890625 11.132812 -33.289062 11.59375 -32.53125 C 12.050781 -31.78125 12.375 -31.003906 12.5625 -30.203125 C 12.757812 -29.398438 12.859375 -28.535156 12.859375 -27.609375 L 12.859375 -16.75 C 12.859375 -14.988281 13.804688 -14.109375 15.703125 -14.109375 Z M 15.703125 -14.109375 "/></g></g></g></svg>